<svg width="20" height="20" viewBox="0 0 20 20" fill="none" xmlns="http://www.w3.org/2000/svg">
<rect width="20" height="20" rx="4" fill="#265BD1"/>
<g clip-path="url(#clip0_2055_451)">
<path d="M16.8473 5.9035C16.649 5.70047 16.2747 5.54379 15.8988 5.58216C15.6109 5.61094 15.3998 5.74843 15.2926 5.83156C15.2926 5.83156 15.2926 5.83156 15.291 5.83156C15.2878 5.83476 15.2846 5.83636 15.2814 5.83955C15.1711 5.92908 15.0735 6.05698 14.9839 6.19926C14.8896 6.34954 14.7904 6.53659 14.688 6.75721C14.4257 7.27359 14.157 7.81875 13.8851 8.39269C13.6228 8.95863 13.3668 9.50699 13.1157 10.0394C12.8662 10.5685 12.6263 11.0481 12.3976 11.475V11.4782L12.3944 11.4814C12.2008 11.8587 12.0281 12.1608 11.8713 12.3959C11.8761 12.2632 11.8889 12.0649 11.9129 11.7963C11.9529 11.4542 11.9977 11.0689 12.0489 10.6373C12.0984 10.1944 12.1496 9.75639 12.1992 9.32314C12.2504 8.8787 12.2904 8.48382 12.3208 8.14009C12.3608 7.78998 12.3832 7.52299 12.3832 7.35353C12.3832 6.91708 12.2936 6.5286 12.0936 6.20246C11.9049 5.89711 11.6586 5.6589 11.3531 5.49903C11.3531 5.49903 11.3515 5.49903 11.3499 5.49743C11.3499 5.49743 11.3499 5.49743 11.3483 5.49743C11.1276 5.38232 10.8237 5.27041 10.459 5.26402C9.21936 5.24483 8.4612 6.48063 8.40522 6.57336C8.11571 7.0178 7.8278 7.52139 7.54149 8.08254C7.26798 8.6325 7.00406 9.19044 6.74974 9.75958V9.76438C6.50822 10.3271 6.28109 10.8499 6.06996 11.3327V11.3359C5.96759 11.5741 5.87482 11.7883 5.79005 11.9802C5.80604 11.7883 5.82684 11.5885 5.85563 11.3695C5.9356 10.8099 6.02517 10.2344 6.12594 9.64288C6.22671 9.03537 6.31308 8.46783 6.38506 7.94025C6.46663 7.41268 6.50822 6.97304 6.50822 6.62772C6.50822 6.11933 6.46343 5.79639 6.22511 5.49423C6.02197 5.24323 5.69088 5.037 5.38058 5.02101C4.65441 4.98584 4.12338 5.7836 3.81627 7.08654C3.7411 7.37111 3.67072 7.67647 3.60994 8.0042C3.54116 8.36871 3.49318 8.71403 3.45959 9.03697C3.37801 9.75479 3.33643 10.5078 3.33643 11.2927C3.33643 12.1273 3.38281 12.8131 3.47718 13.3439C3.54596 13.7196 3.7427 14.8067 4.53285 15.2224C4.85434 15.3918 5.16305 15.3902 5.27501 15.3886C5.83004 15.3806 6.23631 15.1089 6.54981 14.8211C6.92729 14.4758 7.28237 14.0393 7.61667 13.5181V13.5149C7.94456 12.9922 8.24847 12.4374 8.52518 11.8539C8.80829 11.2768 9.05781 10.7332 9.27214 10.2232C9.27214 10.2232 9.27214 10.2232 9.27214 10.2216C9.27214 10.2216 9.27214 10.2216 9.27214 10.22C9.36491 10.0074 9.46088 9.77078 9.56165 9.51019C9.52166 9.8667 9.48168 10.2248 9.44009 10.5877V10.5909V10.5941C9.4001 11.0386 9.36491 11.4526 9.33452 11.8363C9.30413 12.2136 9.28814 12.5301 9.28814 12.7827C9.28974 13.6476 9.81757 15.2208 11.8009 15.2048C12.2568 15.2016 12.6983 14.9714 13.1189 14.5941C13.538 14.2168 13.9635 13.7004 14.3953 13.0529C14.8272 12.4038 15.2574 11.6477 15.6861 10.7812C15.8557 10.4694 16.0924 10.001 16.3307 9.41266C16.817 8.20884 17.4855 6.55098 16.8441 5.89551L16.8473 5.9035Z" fill="white"/>
</g>
<defs>
<clipPath id="clip0_2055_451">
<rect width="13.7748" height="10.3724" fill="white" transform="translate(3.33643 5.021)"/>
</clipPath>
</defs>
</svg>
